{"asset":{"version":"2.0","generator":"ddgeoviztools"},"scene":0,"scenes":[{"nodes":[0]}],"nodes":[{"name":"ECalBarrel","mesh":0}],"meshes":[{"name":"ECalBarrel","primitives":[{"attributes":{"COLOR_0":1,"POSITION":0},"indices":2,"mode":0,"material":0},{"attributes":{"COLOR_0":1,"POSITION":0},"indices":3,"mode":1},{"attributes":{"COLOR_0":1,"POSITION":0},"indices":4,"mode":4},{"attributes":{"COLOR_0":6,"POSITION":5},"indices":7,"mode":0,"material":1},{"attributes":{"COLOR_0":6,"POSITION":5},"indices":8,"mode":1},{"attributes":{"COLOR_0":6,"POSITION":5},"indices":9,"mode":4},{"attributes":{"COLOR_0":11,"POSITION":10},"indices":12,"mode":1,"material":2},{"attributes":{"COLOR_0":11,"POSITION":10},"indices":13,"mode":4},{"attributes":{"COLOR_0":15,"POSITION":14},"indices":16,"mode":0,"material":3},{"attributes":{"COLOR_0":15,"POSITION":14},"indices":17,"mode":1},{"attributes":{"COLOR_0":15,"POSITION":14},"indices":18,"mode":4},{"attributes":{"COLOR_0":20,"POSITION":19},"indices":21,"mode":0,"material":4},{"attributes":{"COLOR_0":20,"POSITION":19},"indices":22,"mode":1},{"attributes":{"COLOR_0":20,"POSITION":19},"indices":23,"mode":4},{"attributes":{"COLOR_0":25,"POSITION":24},"indices":26,"mode":1,"material":5},{"attributes":{"COLOR_0":25,"POSITION":24},"indices":27,"mode":4},{"attributes":{"COLOR_0":29,"POSITION":28},"indices":30,"mode":0,"material":6},{"attributes":{"COLOR_0":29,"POSITION":28},"indices":31,"mode":1},{"attributes":{"COLOR_0":29,"POSITION":28},"indices":32,"mode":4},{"attributes":{"COLOR_0":34,"POSITION":33},"indices":35,"mode":0,"material":7},{"attributes":{"COLOR_0":34,"POSITION":33},"indices":36,"mode":1},{"attributes":{"COLOR_0":34,"POSITION":33},"indices":37,"mode":4},{"attributes":{"COLOR_0":39,"POSITION":38},"indices":40,"mode":1,"material":8},{"attributes":{"COLOR_0":39,"POSITION":38},"indices":41,"mode":4},{"attributes":{"COLOR_0":43,"POSITION":42},"indices":44,"mode":0,"material":9},{"attributes":{"COLOR_0":43,"POSITION":42},"indices":45,"mode":1},{"attributes":{"COLOR_0":43,"POSITION":42},"indices":46,"mode":4},{"attributes":{"COLOR_0":48,"POSITION":47},"indices":49,"mode":0,"material":10},{"attributes":{"COLOR_0":48,"POSITION":47},"indices":50,"mode":1},{"attributes":{"COLOR_0":48,"POSITION":47},"indices":51,"mode":4},{"attributes":{"COLOR_0":53,"POSITION":52},"indices":54,"mode":1,"material":11},{"attributes":{"COLOR_0":53,"POSITION":52},"indices":55,"mode":4}]}],"accessors":[{"bufferView":0,"byteOffset":0,"componentType":5126,"count":864,"max":[1098.33740234375,-1664.940673828125,2307.0],"min":[-2.7694381060427986e-05,-2199.0732421875,-2307.0],"type":"VEC3"},{"bufferView":1,"byteOffset":0,"componentType":5121,"count":864,"normalized":true,"type":"VEC4"},{"bufferView":2,"byteOffset":0,"componentType":5125,"count":54,"type":"SCALAR"},{"bufferView":3,"byteOffset":0,"componentType":5125,"count":968,"type":"SCALAR"},{"bufferView":4,"byteOffset":0,"componentType":5125,"count":1800,"type":"SCALAR"},{"bufferView":5,"byteOffset":0,"componentType":5126,"count":872,"max":[2.7694381060427986e-05,-1664.940673828125,2307.0],"min":[-1098.33740234375,-2199.0732421875,-2307.0],"type":"VEC3"},{"bufferView":6,"byteOffset":0,"componentType":5121,"count":872,"normalized":true,"type":"VEC4"},{"bufferView":7,"byteOffset":0,"componentType":5125,"count":92,"type":"SCALAR"},{"bufferView":8,"byteOffset":0,"componentType":5125,"count":984,"type":"SCALAR"},{"bufferView":9,"byteOffset":0,"componentType":5125,"count":1800,"type":"SCALAR"},{"bufferView":10,"byteOffset":0,"componentType":5126,"count":755,"max":[-961.25390625,-961.25390625,2307.0],"min":[-1903.760986328125,-1903.760986328125,-2307.0],"type":"VEC3"},{"bufferView":11,"byteOffset":0,"componentType":5121,"count":755,"normalized":true,"type":"VEC4"},{"bufferView":12,"byteOffset":0,"componentType":5125,"count":800,"type":"SCALAR"},{"bufferView":13,"byteOffset":0,"componentType":5125,"count":1800,"type":"SCALAR"},{"bufferView":14,"byteOffset":0,"componentType":5126,"count":864,"max":[-1664.940673828125,2.7694381060427986e-05,2307.0],"min":[-2199.0732421875,-1098.33740234375,-2307.0],"type":"VEC3"},{"bufferView":15,"byteOffset":0,"componentType":5121,"count":864,"normalized":true,"type":"VEC4"},{"bufferView":16,"byteOffset":0,"componentType":5125,"count":54,"type":"SCALAR"},{"bufferView":17,"byteOffset":0,"componentType":5125,"count":968,"type":"SCALAR"},{"bufferView":18,"byteOffset":0,"componentType":5125,"count":1800,"type":"SCALAR"},{"bufferView":19,"byteOffset":0,"componentType":5126,"count":867,"max":[-1664.940673828125,1098.33740234375,2307.0],"min":[-2199.0732421875,-2.769438287941739e-05,-2307.0],"type":"VEC3"},{"bufferView":20,"byteOffset":0,"componentType":5121,"count":867,"normalized":true,"type":"VEC4"},{"bufferView":21,"byteOffset":0,"componentType":5125,"count":97,"type":"SCALAR"},{"bufferView":22,"byteOffset":0,"componentType":5125,"count":974,"type":"SCALAR"},{"bufferView":23,"byteOffset":0,"componentType":5125,"count":1800,"type":"SCALAR"},{"bufferView":24,"byteOffset":0,"componentType":5126,"count":755,"max":[-961.25390625,1903.760986328125,2307.0],"min":[-1903.760986328125,961.25390625,-2307.0],"type":"VEC3"},{"bufferView":25,"byteOffset":0,"componentType":5121,"count":755,"normalized":true,"type":"VEC4"},{"bufferView":26,"byteOffset":0,"componentType":5125,"count":800,"type":"SCALAR"},{"bufferView":27,"byteOffset":0,"componentType":5125,"count":1800,"type":"SCALAR"},{"bufferView":28,"byteOffset":0,"componentType":5126,"count":863,"max":[2.7694381060427986e-05,2199.0732421875,2307.0],"min":[-1098.33740234375,1664.940673828125,-2307.0],"type":"VEC3"},{"bufferView":29,"byteOffset":0,"componentType":5121,"count":863,"normalized":true,"type":"VEC4"},{"bufferView":30,"byteOffset":0,"componentType":5125,"count":55,"type":"SCALAR"},{"bufferView":31,"byteOffset":0,"componentType":5125,"count":966,"type":"SCALAR"},{"bufferView":32,"byteOffset":0,"componentType":5125,"count":1800,"type":"SCALAR"},{"bufferView":33,"byteOffset":0,"componentType":5126,"count":869,"max":[1098.33740234375,2199.0732421875,2307.0],"min":[-2.7694381060427986e-05,1664.940673828125,-2307.0],"type":"VEC3"},{"bufferView":34,"byteOffset":0,"componentType":5121,"count":869,"normalized":true,"type":"VEC4"},{"bufferView":35,"byteOffset":0,"componentType":5125,"count":95,"type":"SCALAR"},{"bufferView":36,"byteOffset":0,"componentType":5125,"count":978,"type":"SCALAR"},{"bufferView":37,"byteOffset":0,"componentType":5125,"count":1800,"type":"SCALAR"},{"bufferView":38,"byteOffset":0,"componentType":5126,"count":755,"max":[1903.760986328125,1903.760986328125,2307.0],"min":[961.25390625,961.25390625,-2307.0],"type":"VEC3"},{"bufferView":39,"byteOffset":0,"componentType":5121,"count":755,"normalized":true,"type":"VEC4"},{"bufferView":40,"byteOffset":0,"componentType":5125,"count":800,"type":"SCALAR"},{"bufferView":41,"byteOffset":0,"componentType":5125,"count":1800,"type":"SCALAR"},{"bufferView":42,"byteOffset":0,"componentType":5126,"count":863,"max":[2199.0732421875,1098.33740234375,2307.0],"min":[1664.940673828125,-2.7694381060427986e-05,-2307.0],"type":"VEC3"},{"bufferView":43,"byteOffset":0,"componentType":5121,"count":863,"normalized":true,"type":"VEC4"},{"bufferView":44,"byteOffset":0,"componentType":5125,"count":55,"type":"SCALAR"},{"bufferView":45,"byteOffset":0,"componentType":5125,"count":966,"type":"SCALAR"},{"bufferView":46,"byteOffset":0,"componentType":5125,"count":1800,"type":"SCALAR"},{"bufferView":47,"byteOffset":0,"componentType":5126,"count":871,"max":[2199.0732421875,2.7694381060427986e-05,2307.0],"min":[1664.940673828125,-1098.33740234375,-2307.0],"type":"VEC3"},{"bufferView":48,"byteOffset":0,"componentType":5121,"count":871,"normalized":true,"type":"VEC4"},{"bufferView":49,"byteOffset":0,"componentType":5125,"count":93,"type":"SCALAR"},{"bufferView":50,"byteOffset":0,"componentType":5125,"count":982,"type":"SCALAR"},{"bufferView":51,"byteOffset":0,"componentType":5125,"count":1800,"type":"SCALAR"},{"bufferView":52,"byteOffset":0,"componentType":5126,"count":755,"max":[1903.760986328125,-961.25390625,2307.0],"min":[961.25390625,-1903.760986328125,-2307.0],"type":"VEC3"},{"bufferView":53,"byteOffset":0,"componentType":5121,"count":755,"normalized":true,"type":"VEC4"},{"bufferView":54,"byteOffset":0,"componentType":5125,"count":800,"type":"SCALAR"},{"bufferView":55,"byteOffset":0,"componentType":5125,"count":1800,"type":"SCALAR"}],"bufferViews":[{"buffer":0,"byteLength":10368,"byteOffset":0,"target":34962},{"buffer":0,"byteLength":3456,"byteOffset":10368,"target":34962},{"buffer":0,"byteLength":216,"byteOffset":13824,"target":34963},{"buffer":0,"byteLength":3872,"byteOffset":14040,"target":34963},{"buffer":0,"byteLength":7200,"byteOffset":17912,"target":34963},{"buffer":0,"byteLength":10464,"byteOffset":25112,"target":34962},{"buffer":0,"byteLength":3488,"byteOffset":35576,"target":34962},{"buffer":0,"byteLength":368,"byteOffset":39064,"target":34963},{"buffer":0,"byteLength":3936,"byteOffset":39432,"target":34963},{"buffer":0,"byteLength":7200,"byteOffset":43368,"target":34963},{"buffer":0,"byteLength":9060,"byteOffset":50568,"target":34962},{"buffer":0,"byteLength":3020,"byteOffset":59628,"target":34962},{"buffer":0,"byteLength":3200,"byteOffset":62648,"target":34963},{"buffer":0,"byteLength":7200,"byteOffset":65848,"target":34963},{"buffer":0,"byteLength":10368,"byteOffset":73048,"target":34962},{"buffer":0,"byteLength":3456,"byteOffset":83416,"target":34962},{"buffer":0,"byteLength":216,"byteOffset":86872,"target":34963},{"buffer":0,"byteLength":3872,"byteOffset":87088,"target":34963},{"buffer":0,"byteLength":7200,"byteOffset":90960,"target":34963},{"buffer":0,"byteLength":10404,"byteOffset":98160,"target":34962},{"buffer":0,"byteLength":3468,"byteOffset":108564,"target":34962},{"buffer":0,"byteLength":388,"byteOffset":112032,"target":34963},{"buffer":0,"byteLength":3896,"byteOffset":112420,"target":34963},{"buffer":0,"byteLength":7200,"byteOffset":116316,"target":34963},{"buffer":0,"byteLength":9060,"byteOffset":123516,"target":34962},{"buffer":0,"byteLength":3020,"byteOffset":132576,"target":34962},{"buffer":0,"byteLength":3200,"byteOffset":135596,"target":34963},{"buffer":0,"byteLength":7200,"byteOffset":138796,"target":34963},{"buffer":0,"byteLength":10356,"byteOffset":145996,"target":34962},{"buffer":0,"byteLength":3452,"byteOffset":156352,"target":34962},{"buffer":0,"byteLength":220,"byteOffset":159804,"target":34963},{"buffer":0,"byteLength":3864,"byteOffset":160024,"target":34963},{"buffer":0,"byteLength":7200,"byteOffset":163888,"target":34963},{"buffer":0,"byteLength":10428,"byteOffset":171088,"target":34962},{"buffer":0,"byteLength":3476,"byteOffset":181516,"target":34962},{"buffer":0,"byteLength":380,"byteOffset":184992,"target":34963},{"buffer":0,"byteLength":3912,"byteOffset":185372,"target":34963},{"buffer":0,"byteLength":7200,"byteOffset":189284,"target":34963},{"buffer":0,"byteLength":9060,"byteOffset":196484,"target":34962},{"buffer":0,"byteLength":3020,"byteOffset":205544,"target":34962},{"buffer":0,"byteLength":3200,"byteOffset":208564,"target":34963},{"buffer":0,"byteLength":7200,"byteOffset":211764,"target":34963},{"buffer":0,"byteLength":10356,"byteOffset":218964,"target":34962},{"buffer":0,"byteLength":3452,"byteOffset":229320,"target":34962},{"buffer":0,"byteLength":220,"byteOffset":232772,"target":34963},{"buffer":0,"byteLength":3864,"byteOffset":232992,"target":34963},{"buffer":0,"byteLength":7200,"byteOffset":236856,"target":34963},{"buffer":0,"byteLength":10452,"byteOffset":244056,"target":34962},{"buffer":0,"byteLength":3484,"byteOffset":254508,"target":34962},{"buffer":0,"byteLength":372,"byteOffset":257992,"target":34963},{"buffer":0,"byteLength":3928,"byteOffset":258364,"target":34963},{"buffer":0,"byteLength":7200,"byteOffset":262292,"target":34963},{"buffer":0,"byteLength":9060,"byteOffset":269492,"target":34962},{"buffer":0,"byteLength":3020,"byteOffset":278552,"target":34962},{"buffer":0,"byteLength":3200,"byteOffset":281572,"target":34963},{"buffer":0,"byteLength":7200,"byteOffset":284772,"target":34963}],"buffers":[{"uri":"data:application/octet-stream;base64,","byteLength":291972}],"materials":[{"pbrMetallicRoughness":{"baseColorFactor":[1.0,1.0,1.0,1.0],"metallicFactor":0.0,"roughnessFactor":1.0}},{"pbrMetallicRoughness":{"baseColorFactor":[1.0,1.0,1.0,1.0],"metallicFactor":0.0,"roughnessFactor":1.0}},{"pbrMetallicRoughness":{"baseColorFactor":[1.0,1.0,1.0,1.0],"metallicFactor":0.0,"roughnessFactor":1.0}},{"pbrMetallicRoughness":{"baseColorFactor":[1.0,1.0,1.0,1.0],"metallicFactor":0.0,"roughnessFactor":1.0}},{"pbrMetallicRoughness":{"baseColorFactor":[1.0,1.0,1.0,1.0],"metallicFactor":0.0,"roughnessFactor":1.0}},{"pbrMetallicRoughness":{"baseColorFactor":[1.0,1.0,1.0,1.0],"metallicFactor":0.0,"roughnessFactor":1.0}},{"pbrMetallicRoughness":{"baseColorFactor":[1.0,1.0,1.0,1.0],"metallicFactor":0.0,"roughnessFactor":1.0}},{"pbrMetallicRoughness":{"baseColorFactor":[1.0,1.0,1.0,1.0],"metallicFactor":0.0,"roughnessFactor":1.0}},{"pbrMetallicRoughness":{"baseColorFactor":[1.0,1.0,1.0,1.0],"metallicFactor":0.0,"roughnessFactor":1.0}},{"pbrMetallicRoughness":{"baseColorFactor":[1.0,1.0,1.0,1.0],"metallicFactor":0.0,"roughnessFactor":1.0}},{"pbrMetallicRoughness":{"baseColorFactor":[1.0,1.0,1.0,1.0],"metallicFactor":0.0,"roughnessFactor":1.0}},{"pbrMetallicRoughness":{"baseColorFactor":[1.0,1.0,1.0,1.0],"metallicFactor":0.0,"roughnessFactor":1.0}}]}