{"asset":{"version":"2.0","generator":"ddgeoviztools"},"scene":0,"scenes":[{"nodes":[0]}],"nodes":[{"name":"HCalBarrel","mesh":0}],"meshes":[{"name":"HCalBarrel","primitives":[{"attributes":{"COLOR_0":1,"POSITION":0},"indices":2,"mode":0,"material":0},{"attributes":{"COLOR_0":1,"POSITION":0},"indices":3,"mode":1},{"attributes":{"COLOR_0":1,"POSITION":0},"indices":4,"mode":4},{"attributes":{"COLOR_0":6,"POSITION":5},"indices":7,"mode":0,"material":1},{"attributes":{"COLOR_0":6,"POSITION":5},"indices":8,"mode":1},{"attributes":{"COLOR_0":6,"POSITION":5},"indices":9,"mode":4},{"attributes":{"COLOR_0":11,"POSITION":10},"indices":12,"mode":1,"material":2},{"attributes":{"COLOR_0":11,"POSITION":10},"indices":13,"mode":4},{"attributes":{"COLOR_0":15,"POSITION":14},"indices":16,"mode":0,"material":3},{"attributes":{"COLOR_0":15,"POSITION":14},"indices":17,"mode":1},{"attributes":{"COLOR_0":15,"POSITION":14},"indices":18,"mode":4},{"attributes":{"COLOR_0":20,"POSITION":19},"indices":21,"mode":0,"material":4},{"attributes":{"COLOR_0":20,"POSITION":19},"indices":22,"mode":1},{"attributes":{"COLOR_0":20,"POSITION":19},"indices":23,"mode":4},{"attributes":{"COLOR_0":25,"POSITION":24},"indices":26,"mode":1,"material":5},{"attributes":{"COLOR_0":25,"POSITION":24},"indices":27,"mode":4},{"attributes":{"COLOR_0":29,"POSITION":28},"indices":30,"mode":0,"material":6},{"attributes":{"COLOR_0":29,"POSITION":28},"indices":31,"mode":1},{"attributes":{"COLOR_0":29,"POSITION":28},"indices":32,"mode":4},{"attributes":{"COLOR_0":34,"POSITION":33},"indices":35,"mode":0,"material":7},{"attributes":{"COLOR_0":34,"POSITION":33},"indices":36,"mode":1},{"attributes":{"COLOR_0":34,"POSITION":33},"indices":37,"mode":4},{"attributes":{"COLOR_0":39,"POSITION":38},"indices":40,"mode":1,"material":8},{"attributes":{"COLOR_0":39,"POSITION":38},"indices":41,"mode":4},{"attributes":{"COLOR_0":43,"POSITION":42},"indices":44,"mode":0,"material":9},{"attributes":{"COLOR_0":43,"POSITION":42},"indices":45,"mode":1},{"attributes":{"COLOR_0":43,"POSITION":42},"indices":46,"mode":4},{"attributes":{"COLOR_0":48,"POSITION":47},"indices":49,"mode":0,"material":10},{"attributes":{"COLOR_0":48,"POSITION":47},"indices":50,"mode":1},{"attributes":{"COLOR_0":48,"POSITION":47},"indices":51,"mode":4},{"attributes":{"COLOR_0":53,"POSITION":52},"indices":54,"mode":1,"material":11},{"attributes":{"COLOR_0":53,"POSITION":52},"indices":55,"mode":4}]}],"accessors":[{"bufferView":0,"byteOffset":0,"componentType":5126,"count":1312,"max":[2115.71630859375,-1906.1195068359375,2574.5],"min":[-4.730242653749883e-05,-4231.65673828125,-2574.5],"type":"VEC3"},{"bufferView":1,"byteOffset":0,"componentType":5121,"count":1312,"normalized":true,"type":"VEC4"},{"bufferView":2,"byteOffset":0,"componentType":5125,"count":104,"type":"SCALAR"},{"bufferView":3,"byteOffset":0,"componentType":5125,"count":1424,"type":"SCALAR"},{"bufferView":4,"byteOffset":0,"componentType":5125,"count":2700,"type":"SCALAR"},{"bufferView":5,"byteOffset":0,"componentType":5126,"count":1312,"max":[4.730242653749883e-05,-1906.1195068359375,2574.5],"min":[-2115.71630859375,-4231.65673828125,-2574.5],"type":"VEC3"},{"bufferView":6,"byteOffset":0,"componentType":5121,"count":1312,"normalized":true,"type":"VEC4"},{"bufferView":7,"byteOffset":0,"componentType":5125,"count":176,"type":"SCALAR"},{"bufferView":8,"byteOffset":0,"componentType":5125,"count":1424,"type":"SCALAR"},{"bufferView":9,"byteOffset":0,"componentType":5125,"count":2700,"type":"SCALAR"},{"bufferView":10,"byteOffset":0,"componentType":5126,"count":1200,"max":[-1100.49853515625,-1100.49853515625,2574.5],"min":[-3664.657470703125,-3664.657470703125,-2574.5],"type":"VEC3"},{"bufferView":11,"byteOffset":0,"componentType":5121,"count":1200,"normalized":true,"type":"VEC4"},{"bufferView":12,"byteOffset":0,"componentType":5125,"count":1200,"type":"SCALAR"},{"bufferView":13,"byteOffset":0,"componentType":5125,"count":2700,"type":"SCALAR"},{"bufferView":14,"byteOffset":0,"componentType":5126,"count":1315,"max":[-1906.1195068359375,4.730242653749883e-05,2574.5],"min":[-4231.65673828125,-2115.71630859375,-2574.5],"type":"VEC3"},{"bufferView":15,"byteOffset":0,"componentType":5121,"count":1315,"normalized":true,"type":"VEC4"},{"bufferView":16,"byteOffset":0,"componentType":5125,"count":101,"type":"SCALAR"},{"bufferView":17,"byteOffset":0,"componentType":5125,"count":1430,"type":"SCALAR"},{"bufferView":18,"byteOffset":0,"componentType":5125,"count":2700,"type":"SCALAR"},{"bufferView":19,"byteOffset":0,"componentType":5126,"count":1313,"max":[-1906.1195068359375,2115.71630859375,2574.5],"min":[-4231.65673828125,-4.730242653749883e-05,-2574.5],"type":"VEC3"},{"bufferView":20,"byteOffset":0,"componentType":5121,"count":1313,"normalized":true,"type":"VEC4"},{"bufferView":21,"byteOffset":0,"componentType":5125,"count":175,"type":"SCALAR"},{"bufferView":22,"byteOffset":0,"componentType":5125,"count":1426,"type":"SCALAR"},{"bufferView":23,"byteOffset":0,"componentType":5125,"count":2700,"type":"SCALAR"},{"bufferView":24,"byteOffset":0,"componentType":5126,"count":1200,"max":[-1100.49853515625,3664.657470703125,2574.5],"min":[-3664.657470703125,1100.49853515625,-2574.5],"type":"VEC3"},{"bufferView":25,"byteOffset":0,"componentType":5121,"count":1200,"normalized":true,"type":"VEC4"},{"bufferView":26,"byteOffset":0,"componentType":5125,"count":1200,"type":"SCALAR"},{"bufferView":27,"byteOffset":0,"componentType":5125,"count":2700,"type":"SCALAR"},{"bufferView":28,"byteOffset":0,"componentType":5126,"count":1315,"max":[4.730242653749883e-05,4231.65673828125,2574.5],"min":[-2115.71630859375,1906.1195068359375,-2574.5],"type":"VEC3"},{"bufferView":29,"byteOffset":0,"componentType":5121,"count":1315,"normalized":true,"type":"VEC4"},{"bufferView":30,"byteOffset":0,"componentType":5125,"count":101,"type":"SCALAR"},{"bufferView":31,"byteOffset":0,"componentType":5125,"count":1430,"type":"SCALAR"},{"bufferView":32,"byteOffset":0,"componentType":5125,"count":2700,"type":"SCALAR"},{"bufferView":33,"byteOffset":0,"componentType":5126,"count":1312,"max":[2115.71630859375,4231.65673828125,2574.5],"min":[-4.730242653749883e-05,1906.1195068359375,-2574.5],"type":"VEC3"},{"bufferView":34,"byteOffset":0,"componentType":5121,"count":1312,"normalized":true,"type":"VEC4"},{"bufferView":35,"byteOffset":0,"componentType":5125,"count":176,"type":"SCALAR"},{"bufferView":36,"byteOffset":0,"componentType":5125,"count":1424,"type":"SCALAR"},{"bufferView":37,"byteOffset":0,"componentType":5125,"count":2700,"type":"SCALAR"},{"bufferView":38,"byteOffset":0,"componentType":5126,"count":1200,"max":[3664.657470703125,3664.657470703125,2574.5],"min":[1100.49853515625,1100.49853515625,-2574.5],"type":"VEC3"},{"bufferView":39,"byteOffset":0,"componentType":5121,"count":1200,"normalized":true,"type":"VEC4"},{"bufferView":40,"byteOffset":0,"componentType":5125,"count":1200,"type":"SCALAR"},{"bufferView":41,"byteOffset":0,"componentType":5125,"count":2700,"type":"SCALAR"},{"bufferView":42,"byteOffset":0,"componentType":5126,"count":1315,"max":[4231.65673828125,2115.71630859375,2574.5],"min":[1906.1195068359375,-4.730242653749883e-05,-2574.5],"type":"VEC3"},{"bufferView":43,"byteOffset":0,"componentType":5121,"count":1315,"normalized":true,"type":"VEC4"},{"bufferView":44,"byteOffset":0,"componentType":5125,"count":101,"type":"SCALAR"},{"bufferView":45,"byteOffset":0,"componentType":5125,"count":1430,"type":"SCALAR"},{"bufferView":46,"byteOffset":0,"componentType":5125,"count":2700,"type":"SCALAR"},{"bufferView":47,"byteOffset":0,"componentType":5126,"count":1312,"max":[4231.65673828125,4.730242653749883e-05,2574.5],"min":[1906.1195068359375,-2115.71630859375,-2574.5],"type":"VEC3"},{"bufferView":48,"byteOffset":0,"componentType":5121,"count":1312,"normalized":true,"type":"VEC4"},{"bufferView":49,"byteOffset":0,"componentType":5125,"count":176,"type":"SCALAR"},{"bufferView":50,"byteOffset":0,"componentType":5125,"count":1424,"type":"SCALAR"},{"bufferView":51,"byteOffset":0,"componentType":5125,"count":2700,"type":"SCALAR"},{"bufferView":52,"byteOffset":0,"componentType":5126,"count":1200,"max":[3664.657470703125,-1100.49853515625,2574.5],"min":[1100.49853515625,-3664.657470703125,-2574.5],"type":"VEC3"},{"bufferView":53,"byteOffset":0,"componentType":5121,"count":1200,"normalized":true,"type":"VEC4"},{"bufferView":54,"byteOffset":0,"componentType":5125,"count":1200,"type":"SCALAR"},{"bufferView":55,"byteOffset":0,"componentType":5125,"count":2700,"type":"SCALAR"}],"bufferViews":[{"buffer":0,"byteLength":15744,"byteOffset":0,"target":34962},{"buffer":0,"byteLength":5248,"byteOffset":15744,"target":34962},{"buffer":0,"byteLength":416,"byteOffset":20992,"target":34963},{"buffer":0,"byteLength":5696,"byteOffset":21408,"target":34963},{"buffer":0,"byteLength":10800,"byteOffset":27104,"target":34963},{"buffer":0,"byteLength":15744,"byteOffset":37904,"target":34962},{"buffer":0,"byteLength":5248,"byteOffset":53648,"target":34962},{"buffer":0,"byteLength":704,"byteOffset":58896,"target":34963},{"buffer":0,"byteLength":5696,"byteOffset":59600,"target":34963},{"buffer":0,"byteLength":10800,"byteOffset":65296,"target":34963},{"buffer":0,"byteLength":14400,"byteOffset":76096,"target":34962},{"buffer":0,"byteLength":4800,"byteOffset":90496,"target":34962},{"buffer":0,"byteLength":4800,"byteOffset":95296,"target":34963},{"buffer":0,"byteLength":10800,"byteOffset":100096,"target":34963},{"buffer":0,"byteLength":15780,"byteOffset":110896,"target":34962},{"buffer":0,"byteLength":5260,"byteOffset":126676,"target":34962},{"buffer":0,"byteLength":404,"byteOffset":131936,"target":34963},{"buffer":0,"byteLength":5720,"byteOffset":132340,"target":34963},{"buffer":0,"byteLength":10800,"byteOffset":138060,"target":34963},{"buffer":0,"byteLength":15756,"byteOffset":148860,"target":34962},{"buffer":0,"byteLength":5252,"byteOffset":164616,"target":34962},{"buffer":0,"byteLength":700,"byteOffset":169868,"target":34963},{"buffer":0,"byteLength":5704,"byteOffset":170568,"target":34963},{"buffer":0,"byteLength":10800,"byteOffset":176272,"target":34963},{"buffer":0,"byteLength":14400,"byteOffset":187072,"target":34962},{"buffer":0,"byteLength":4800,"byteOffset":201472,"target":34962},{"buffer":0,"byteLength":4800,"byteOffset":206272,"target":34963},{"buffer":0,"byteLength":10800,"byteOffset":211072,"target":34963},{"buffer":0,"byteLength":15780,"byteOffset":221872,"target":34962},{"buffer":0,"byteLength":5260,"byteOffset":237652,"target":34962},{"buffer":0,"byteLength":404,"byteOffset":242912,"target":34963},{"buffer":0,"byteLength":5720,"byteOffset":243316,"target":34963},{"buffer":0,"byteLength":10800,"byteOffset":249036,"target":34963},{"buffer":0,"byteLength":15744,"byteOffset":259836,"target":34962},{"buffer":0,"byteLength":5248,"byteOffset":275580,"target":34962},{"buffer":0,"byteLength":704,"byteOffset":280828,"target":34963},{"buffer":0,"byteLength":5696,"byteOffset":281532,"target":34963},{"buffer":0,"byteLength":10800,"byteOffset":287228,"target":34963},{"buffer":0,"byteLength":14400,"byteOffset":298028,"target":34962},{"buffer":0,"byteLength":4800,"byteOffset":312428,"target":34962},{"buffer":0,"byteLength":4800,"byteOffset":317228,"target":34963},{"buffer":0,"byteLength":10800,"byteOffset":322028,"target":34963},{"buffer":0,"byteLength":15780,"byteOffset":332828,"target":34962},{"buffer":0,"byteLength":5260,"byteOffset":348608,"target":34962},{"buffer":0,"byteLength":404,"byteOffset":353868,"target":34963},{"buffer":0,"byteLength":5720,"byteOffset":354272,"target":34963},{"buffer":0,"byteLength":10800,"byteOffset":359992,"target":34963},{"buffer":0,"byteLength":15744,"byteOffset":370792,"target":34962},{"buffer":0,"byteLength":5248,"byteOffset":386536,"target":34962},{"buffer":0,"byteLength":704,"byteOffset":391784,"target":34963},{"buffer":0,"byteLength":5696,"byteOffset":392488,"target":34963},{"buffer":0,"byteLength":10800,"byteOffset":398184,"target":34963},{"buffer":0,"byteLength":14400,"byteOffset":408984,"target":34962},{"buffer":0,"byteLength":4800,"byteOffset":423384,"target":34962},{"buffer":0,"byteLength":4800,"byteOffset":428184,"target":34963},{"buffer":0,"byteLength":10800,"byteOffset":432984,"target":34963}],"buffers":[{"uri":"data:application/octet-stream;base64,","byteLength":443784}],"materials":[{"pbrMetallicRoughness":{"baseColorFactor":[1.0,1.0,1.0,1.0],"metallicFactor":0.0,"roughnessFactor":1.0}},{"pbrMetallicRoughness":{"baseColorFactor":[1.0,1.0,1.0,1.0],"metallicFactor":0.0,"roughnessFactor":1.0}},{"pbrMetallicRoughness":{"baseColorFactor":[1.0,1.0,1.0,1.0],"metallicFactor":0.0,"roughnessFactor":1.0}},{"pbrMetallicRoughness":{"baseColorFactor":[1.0,1.0,1.0,1.0],"metallicFactor":0.0,"roughnessFactor":1.0}},{"pbrMetallicRoughness":{"baseColorFactor":[1.0,1.0,1.0,1.0],"metallicFactor":0.0,"roughnessFactor":1.0}},{"pbrMetallicRoughness":{"baseColorFactor":[1.0,1.0,1.0,1.0],"metallicFactor":0.0,"roughnessFactor":1.0}},{"pbrMetallicRoughness":{"baseColorFactor":[1.0,1.0,1.0,1.0],"metallicFactor":0.0,"roughnessFactor":1.0}},{"pbrMetallicRoughness":{"baseColorFactor":[1.0,1.0,1.0,1.0],"metallicFactor":0.0,"roughnessFactor":1.0}},{"pbrMetallicRoughness":{"baseColorFactor":[1.0,1.0,1.0,1.0],"metallicFactor":0.0,"roughnessFactor":1.0}},{"pbrMetallicRoughness":{"baseColorFactor":[1.0,1.0,1.0,1.0],"metallicFactor":0.0,"roughnessFactor":1.0}},{"pbrMetallicRoughness":{"baseColorFactor":[1.0,1.0,1.0,1.0],"metallicFactor":0.0,"roughnessFactor":1.0}},{"pbrMetallicRoughness":{"baseColorFactor":[1.0,1.0,1.0,1.0],"metallicFactor":0.0,"roughnessFactor":1.0}}]}