{"accessors":[{"bufferView":0,"byteOffset":0,"componentType":5126,"count":525,"max":[550.0,550.0,-1000.0],"min":[-550.0,-550.0,-5950.0],"type":"VEC3"},{"bufferView":1,"byteOffset":0,"componentType":5121,"count":525,"normalized":true,"type":"VEC4"},{"bufferView":2,"byteOffset":0,"componentType":5125,"count":14,"type":"SCALAR"},{"bufferView":3,"byteOffset":0,"componentType":5125,"count":36,"type":"SCALAR"},{"bufferView":4,"byteOffset":0,"componentType":5125,"count":3072,"type":"SCALAR"}],"asset":{"generator":"VTK","version":"2.0"},"bufferViews":[{"buffer":0,"byteLength":6300,"byteOffset":0,"target":34962},{"buffer":1,"byteLength":2100,"byteOffset":0,"target":34962},{"buffer":2,"byteLength":56,"byteOffset":0,"target":34963},{"buffer":3,"byteLength":144,"byteOffset":0,"target":34963},{"buffer":4,"byteLength":12288,"byteOffset":0,"target":34963}],"buffers":[{"byteLength":6300,"uri":"data:application/octet-stream;base64,"},{"byteLength":2100,"uri":"data:application/octet-stream;base64,"},{"byteLength":56,"uri":"data:application/octet-stream;base64,"},{"byteLength":144,"uri":"data:application/octet-stream;base64,"},{"byteLength":12288,"uri":"data:application/octet-stream;base64,"}],"cameras":[{"perspective":{"aspectRatio":1.0,"yfov":0.5235987755982988,"zfar":1000.01,"znear":0.01},"type":"perspective"}],"materials":[{"pbrMetallicRoughness":{"baseColorFactor":[1.0,1.0,1.0,1.0],"metallicFactor":0.0,"roughnessFactor":1.0}}],"meshes":[{"name":"NozzleWCludding_left","primitives":[{"attributes":{"COLOR_0":1,"POSITION":0},"indices":2,"material":0,"mode":0},{"attributes":{"COLOR_0":1,"POSITION":0},"indices":3,"mode":1},{"attributes":{"COLOR_0":1,"POSITION":0},"indices":4,"mode":4}]}],"nodes":[{"name":"NozzleWCludding_left","mesh":0}],"scene":0,"scenes":[{"nodes":[0]}]}