{"asset":{"version":"2.0","generator":"ddgeoviztools"},"scene":0,"scenes":[{"nodes":[0]}],"nodes":[{"name":"Vertex","mesh":0}],"meshes":[{"name":"Vertex","primitives":[{"attributes":{"COLOR_0":1,"POSITION":0},"indices":2,"mode":1,"material":0},{"attributes":{"COLOR_0":1,"POSITION":0},"indices":3,"mode":4},{"attributes":{"COLOR_0":5,"POSITION":4},"indices":6,"mode":0,"material":1},{"attributes":{"COLOR_0":5,"POSITION":4},"indices":7,"mode":1},{"attributes":{"COLOR_0":5,"POSITION":4},"indices":8,"mode":4},{"attributes":{"COLOR_0":10,"POSITION":9},"indices":11,"mode":0,"material":2},{"attributes":{"COLOR_0":10,"POSITION":9},"indices":12,"mode":1},{"attributes":{"COLOR_0":10,"POSITION":9},"indices":13,"mode":4}]}],"accessors":[{"bufferView":0,"byteOffset":0,"componentType":5126,"count":4667,"max":[102.81044006347656,102.7980728149414,65.0],"min":[-103.10462188720703,-103.10874938964844,-65.0],"type":"VEC3"},{"bufferView":1,"byteOffset":0,"componentType":5121,"count":4667,"normalized":true,"type":"VEC4"},{"bufferView":2,"byteOffset":0,"componentType":5125,"count":5024,"type":"SCALAR"},{"bufferView":3,"byteOffset":0,"componentType":5125,"count":20952,"type":"SCALAR"},{"bufferView":4,"byteOffset":0,"componentType":5126,"count":1760,"max":[114.19420623779297,114.19420623779297,284.4949951171875],"min":[-114.19420623779297,-114.19420623779297,-284.4949951171875],"type":"VEC3"},{"bufferView":5,"byteOffset":0,"componentType":5121,"count":1760,"normalized":true,"type":"VEC4"},{"bufferView":6,"byteOffset":0,"componentType":5125,"count":256,"type":"SCALAR"},{"bufferView":7,"byteOffset":0,"componentType":5125,"count":1280,"type":"SCALAR"},{"bufferView":8,"byteOffset":0,"componentType":5125,"count":9216,"type":"SCALAR"},{"bufferView":9,"byteOffset":0,"componentType":5126,"count":1048,"max":[114.5,114.5,66.0199966430664],"min":[-114.5,-114.5,-66.0199966430664],"type":"VEC3"},{"bufferView":10,"byteOffset":0,"componentType":5121,"count":1048,"normalized":true,"type":"VEC4"},{"bufferView":11,"byteOffset":0,"componentType":5125,"count":32,"type":"SCALAR"},{"bufferView":12,"byteOffset":0,"componentType":5125,"count":64,"type":"SCALAR"},{"bufferView":13,"byteOffset":0,"componentType":5125,"count":6144,"type":"SCALAR"}],"bufferViews":[{"buffer":0,"byteLength":56004,"byteOffset":0,"target":34962},{"buffer":0,"byteLength":18668,"byteOffset":56004,"target":34962},{"buffer":0,"byteLength":20096,"byteOffset":74672,"target":34963},{"buffer":0,"byteLength":83808,"byteOffset":94768,"target":34963},{"buffer":0,"byteLength":21120,"byteOffset":178576,"target":34962},{"buffer":0,"byteLength":7040,"byteOffset":199696,"target":34962},{"buffer":0,"byteLength":1024,"byteOffset":206736,"target":34963},{"buffer":0,"byteLength":5120,"byteOffset":207760,"target":34963},{"buffer":0,"byteLength":36864,"byteOffset":212880,"target":34963},{"buffer":0,"byteLength":12576,"byteOffset":249744,"target":34962},{"buffer":0,"byteLength":4192,"byteOffset":262320,"target":34962},{"buffer":0,"byteLength":128,"byteOffset":266512,"target":34963},{"buffer":0,"byteLength":256,"byteOffset":266640,"target":34963},{"buffer":0,"byteLength":24576,"byteOffset":266896,"target":34963}],"buffers":[{"uri":"data:application/octet-stream;base64,","byteLength":291472}],"materials":[{"pbrMetallicRoughness":{"baseColorFactor":[1.0,1.0,1.0,1.0],"metallicFactor":0.0,"roughnessFactor":1.0}},{"pbrMetallicRoughness":{"baseColorFactor":[1.0,1.0,1.0,1.0],"metallicFactor":0.0,"roughnessFactor":1.0}},{"pbrMetallicRoughness":{"baseColorFactor":[1.0,1.0,1.0,1.0],"metallicFactor":0.0,"roughnessFactor":1.0}}]}