{"asset":{"version":"2.0","generator":"ddgeoviztools"},"scene":0,"scenes":[{"nodes":[0]}],"nodes":[{"name":"YokeBarrel","mesh":0}],"meshes":[{"name":"YokeBarrel","primitives":[{"attributes":{"COLOR_0":1,"POSITION":0},"indices":2,"mode":0,"material":0},{"attributes":{"COLOR_0":1,"POSITION":0},"indices":3,"mode":1},{"attributes":{"COLOR_0":1,"POSITION":0},"indices":4,"mode":4},{"attributes":{"COLOR_0":6,"POSITION":5},"indices":7,"mode":0,"material":1},{"attributes":{"COLOR_0":6,"POSITION":5},"indices":8,"mode":1},{"attributes":{"COLOR_0":6,"POSITION":5},"indices":9,"mode":4},{"attributes":{"COLOR_0":11,"POSITION":10},"indices":12,"mode":1,"material":2},{"attributes":{"COLOR_0":11,"POSITION":10},"indices":13,"mode":4},{"attributes":{"COLOR_0":15,"POSITION":14},"indices":16,"mode":0,"material":3},{"attributes":{"COLOR_0":15,"POSITION":14},"indices":17,"mode":1},{"attributes":{"COLOR_0":15,"POSITION":14},"indices":18,"mode":4},{"attributes":{"COLOR_0":20,"POSITION":19},"indices":21,"mode":0,"material":4},{"attributes":{"COLOR_0":20,"POSITION":19},"indices":22,"mode":1},{"attributes":{"COLOR_0":20,"POSITION":19},"indices":23,"mode":4},{"attributes":{"COLOR_0":25,"POSITION":24},"indices":26,"mode":1,"material":5},{"attributes":{"COLOR_0":25,"POSITION":24},"indices":27,"mode":4},{"attributes":{"COLOR_0":29,"POSITION":28},"indices":30,"mode":0,"material":6},{"attributes":{"COLOR_0":29,"POSITION":28},"indices":31,"mode":1},{"attributes":{"COLOR_0":29,"POSITION":28},"indices":32,"mode":4},{"attributes":{"COLOR_0":34,"POSITION":33},"indices":35,"mode":0,"material":7},{"attributes":{"COLOR_0":34,"POSITION":33},"indices":36,"mode":1},{"attributes":{"COLOR_0":34,"POSITION":33},"indices":37,"mode":4},{"attributes":{"COLOR_0":39,"POSITION":38},"indices":40,"mode":1,"material":8},{"attributes":{"COLOR_0":39,"POSITION":38},"indices":41,"mode":4},{"attributes":{"COLOR_0":43,"POSITION":42},"indices":44,"mode":0,"material":9},{"attributes":{"COLOR_0":43,"POSITION":42},"indices":45,"mode":1},{"attributes":{"COLOR_0":43,"POSITION":42},"indices":46,"mode":4},{"attributes":{"COLOR_0":48,"POSITION":47},"indices":49,"mode":0,"material":10},{"attributes":{"COLOR_0":48,"POSITION":47},"indices":50,"mode":1},{"attributes":{"COLOR_0":48,"POSITION":47},"indices":51,"mode":4},{"attributes":{"COLOR_0":53,"POSITION":52},"indices":54,"mode":1,"material":11},{"attributes":{"COLOR_0":53,"POSITION":52},"indices":55,"mode":4}]}],"accessors":[{"bufferView":0,"byteOffset":0,"componentType":5126,"count":69,"max":[2825.527587890625,-3720.788330078125,4600.2998046875],"min":[-2.391299858572893e-05,-5651.50341796875,-4600.2998046875],"type":"VEC3"},{"bufferView":1,"byteOffset":0,"componentType":5121,"count":69,"normalized":true,"type":"VEC4"},{"bufferView":2,"byteOffset":0,"componentType":5125,"count":1,"type":"SCALAR"},{"bufferView":3,"byteOffset":0,"componentType":5125,"count":74,"type":"SCALAR"},{"bufferView":4,"byteOffset":0,"componentType":5125,"count":144,"type":"SCALAR"},{"bufferView":5,"byteOffset":0,"componentType":5126,"count":67,"max":[2.391299858572893e-05,-3720.788330078125,4600.2998046875],"min":[-2825.527587890625,-5651.50341796875,-4600.2998046875],"type":"VEC3"},{"bufferView":6,"byteOffset":0,"componentType":5121,"count":67,"normalized":true,"type":"VEC4"},{"bufferView":7,"byteOffset":0,"componentType":5125,"count":5,"type":"SCALAR"},{"bufferView":8,"byteOffset":0,"componentType":5125,"count":70,"type":"SCALAR"},{"bufferView":9,"byteOffset":0,"componentType":5125,"count":144,"type":"SCALAR"},{"bufferView":10,"byteOffset":0,"componentType":5126,"count":64,"max":[-2148.197998046875,-2148.197998046875,4600.2998046875],"min":[-4894.2158203125,-4894.2158203125,-4600.2998046875],"type":"VEC3"},{"bufferView":11,"byteOffset":0,"componentType":5121,"count":64,"normalized":true,"type":"VEC4"},{"bufferView":12,"byteOffset":0,"componentType":5125,"count":64,"type":"SCALAR"},{"bufferView":13,"byteOffset":0,"componentType":5125,"count":144,"type":"SCALAR"},{"bufferView":14,"byteOffset":0,"componentType":5126,"count":69,"max":[-3720.788330078125,2.391299858572893e-05,4600.2998046875],"min":[-5651.50341796875,-2825.527587890625,-4600.2998046875],"type":"VEC3"},{"bufferView":15,"byteOffset":0,"componentType":5121,"count":69,"normalized":true,"type":"VEC4"},{"bufferView":16,"byteOffset":0,"componentType":5125,"count":1,"type":"SCALAR"},{"bufferView":17,"byteOffset":0,"componentType":5125,"count":74,"type":"SCALAR"},{"bufferView":18,"byteOffset":0,"componentType":5125,"count":144,"type":"SCALAR"},{"bufferView":19,"byteOffset":0,"componentType":5126,"count":67,"max":[-3720.788330078125,2825.527587890625,4600.2998046875],"min":[-5651.50341796875,-2.391299858572893e-05,-4600.2998046875],"type":"VEC3"},{"bufferView":20,"byteOffset":0,"componentType":5121,"count":67,"normalized":true,"type":"VEC4"},{"bufferView":21,"byteOffset":0,"componentType":5125,"count":5,"type":"SCALAR"},{"bufferView":22,"byteOffset":0,"componentType":5125,"count":70,"type":"SCALAR"},{"bufferView":23,"byteOffset":0,"componentType":5125,"count":144,"type":"SCALAR"},{"bufferView":24,"byteOffset":0,"componentType":5126,"count":64,"max":[-2148.197998046875,4894.2158203125,4600.2998046875],"min":[-4894.2158203125,2148.197998046875,-4600.2998046875],"type":"VEC3"},{"bufferView":25,"byteOffset":0,"componentType":5121,"count":64,"normalized":true,"type":"VEC4"},{"bufferView":26,"byteOffset":0,"componentType":5125,"count":64,"type":"SCALAR"},{"bufferView":27,"byteOffset":0,"componentType":5125,"count":144,"type":"SCALAR"},{"bufferView":28,"byteOffset":0,"componentType":5126,"count":69,"max":[2.391299858572893e-05,5651.50341796875,4600.2998046875],"min":[-2825.527587890625,3720.788330078125,-4600.2998046875],"type":"VEC3"},{"bufferView":29,"byteOffset":0,"componentType":5121,"count":69,"normalized":true,"type":"VEC4"},{"bufferView":30,"byteOffset":0,"componentType":5125,"count":1,"type":"SCALAR"},{"bufferView":31,"byteOffset":0,"componentType":5125,"count":74,"type":"SCALAR"},{"bufferView":32,"byteOffset":0,"componentType":5125,"count":144,"type":"SCALAR"},{"bufferView":33,"byteOffset":0,"componentType":5126,"count":67,"max":[2825.527587890625,5651.50341796875,4600.2998046875],"min":[-2.391299858572893e-05,3720.788330078125,-4600.2998046875],"type":"VEC3"},{"bufferView":34,"byteOffset":0,"componentType":5121,"count":67,"normalized":true,"type":"VEC4"},{"bufferView":35,"byteOffset":0,"componentType":5125,"count":5,"type":"SCALAR"},{"bufferView":36,"byteOffset":0,"componentType":5125,"count":70,"type":"SCALAR"},{"bufferView":37,"byteOffset":0,"componentType":5125,"count":144,"type":"SCALAR"},{"bufferView":38,"byteOffset":0,"componentType":5126,"count":64,"max":[4894.2158203125,4894.2158203125,4600.2998046875],"min":[2148.197998046875,2148.197998046875,-4600.2998046875],"type":"VEC3"},{"bufferView":39,"byteOffset":0,"componentType":5121,"count":64,"normalized":true,"type":"VEC4"},{"bufferView":40,"byteOffset":0,"componentType":5125,"count":64,"type":"SCALAR"},{"bufferView":41,"byteOffset":0,"componentType":5125,"count":144,"type":"SCALAR"},{"bufferView":42,"byteOffset":0,"componentType":5126,"count":69,"max":[5651.50341796875,2825.527587890625,4600.2998046875],"min":[3720.788330078125,-2.391299858572893e-05,-4600.2998046875],"type":"VEC3"},{"bufferView":43,"byteOffset":0,"componentType":5121,"count":69,"normalized":true,"type":"VEC4"},{"bufferView":44,"byteOffset":0,"componentType":5125,"count":1,"type":"SCALAR"},{"bufferView":45,"byteOffset":0,"componentType":5125,"count":74,"type":"SCALAR"},{"bufferView":46,"byteOffset":0,"componentType":5125,"count":144,"type":"SCALAR"},{"bufferView":47,"byteOffset":0,"componentType":5126,"count":67,"max":[5651.50341796875,2.391299858572893e-05,4600.2998046875],"min":[3720.788330078125,-2825.527587890625,-4600.2998046875],"type":"VEC3"},{"bufferView":48,"byteOffset":0,"componentType":5121,"count":67,"normalized":true,"type":"VEC4"},{"bufferView":49,"byteOffset":0,"componentType":5125,"count":5,"type":"SCALAR"},{"bufferView":50,"byteOffset":0,"componentType":5125,"count":70,"type":"SCALAR"},{"bufferView":51,"byteOffset":0,"componentType":5125,"count":144,"type":"SCALAR"},{"bufferView":52,"byteOffset":0,"componentType":5126,"count":64,"max":[4894.2158203125,-2148.197998046875,4600.2998046875],"min":[2148.197998046875,-4894.2158203125,-4600.2998046875],"type":"VEC3"},{"bufferView":53,"byteOffset":0,"componentType":5121,"count":64,"normalized":true,"type":"VEC4"},{"bufferView":54,"byteOffset":0,"componentType":5125,"count":64,"type":"SCALAR"},{"bufferView":55,"byteOffset":0,"componentType":5125,"count":144,"type":"SCALAR"}],"bufferViews":[{"buffer":0,"byteLength":828,"byteOffset":0,"target":34962},{"buffer":0,"byteLength":276,"byteOffset":828,"target":34962},{"buffer":0,"byteLength":4,"byteOffset":1104,"target":34963},{"buffer":0,"byteLength":296,"byteOffset":1108,"target":34963},{"buffer":0,"byteLength":576,"byteOffset":1404,"target":34963},{"buffer":0,"byteLength":804,"byteOffset":1980,"target":34962},{"buffer":0,"byteLength":268,"byteOffset":2784,"target":34962},{"buffer":0,"byteLength":20,"byteOffset":3052,"target":34963},{"buffer":0,"byteLength":280,"byteOffset":3072,"target":34963},{"buffer":0,"byteLength":576,"byteOffset":3352,"target":34963},{"buffer":0,"byteLength":768,"byteOffset":3928,"target":34962},{"buffer":0,"byteLength":256,"byteOffset":4696,"target":34962},{"buffer":0,"byteLength":256,"byteOffset":4952,"target":34963},{"buffer":0,"byteLength":576,"byteOffset":5208,"target":34963},{"buffer":0,"byteLength":828,"byteOffset":5784,"target":34962},{"buffer":0,"byteLength":276,"byteOffset":6612,"target":34962},{"buffer":0,"byteLength":4,"byteOffset":6888,"target":34963},{"buffer":0,"byteLength":296,"byteOffset":6892,"target":34963},{"buffer":0,"byteLength":576,"byteOffset":7188,"target":34963},{"buffer":0,"byteLength":804,"byteOffset":7764,"target":34962},{"buffer":0,"byteLength":268,"byteOffset":8568,"target":34962},{"buffer":0,"byteLength":20,"byteOffset":8836,"target":34963},{"buffer":0,"byteLength":280,"byteOffset":8856,"target":34963},{"buffer":0,"byteLength":576,"byteOffset":9136,"target":34963},{"buffer":0,"byteLength":768,"byteOffset":9712,"target":34962},{"buffer":0,"byteLength":256,"byteOffset":10480,"target":34962},{"buffer":0,"byteLength":256,"byteOffset":10736,"target":34963},{"buffer":0,"byteLength":576,"byteOffset":10992,"target":34963},{"buffer":0,"byteLength":828,"byteOffset":11568,"target":34962},{"buffer":0,"byteLength":276,"byteOffset":12396,"target":34962},{"buffer":0,"byteLength":4,"byteOffset":12672,"target":34963},{"buffer":0,"byteLength":296,"byteOffset":12676,"target":34963},{"buffer":0,"byteLength":576,"byteOffset":12972,"target":34963},{"buffer":0,"byteLength":804,"byteOffset":13548,"target":34962},{"buffer":0,"byteLength":268,"byteOffset":14352,"target":34962},{"buffer":0,"byteLength":20,"byteOffset":14620,"target":34963},{"buffer":0,"byteLength":280,"byteOffset":14640,"target":34963},{"buffer":0,"byteLength":576,"byteOffset":14920,"target":34963},{"buffer":0,"byteLength":768,"byteOffset":15496,"target":34962},{"buffer":0,"byteLength":256,"byteOffset":16264,"target":34962},{"buffer":0,"byteLength":256,"byteOffset":16520,"target":34963},{"buffer":0,"byteLength":576,"byteOffset":16776,"target":34963},{"buffer":0,"byteLength":828,"byteOffset":17352,"target":34962},{"buffer":0,"byteLength":276,"byteOffset":18180,"target":34962},{"buffer":0,"byteLength":4,"byteOffset":18456,"target":34963},{"buffer":0,"byteLength":296,"byteOffset":18460,"target":34963},{"buffer":0,"byteLength":576,"byteOffset":18756,"target":34963},{"buffer":0,"byteLength":804,"byteOffset":19332,"target":34962},{"buffer":0,"byteLength":268,"byteOffset":20136,"target":34962},{"buffer":0,"byteLength":20,"byteOffset":20404,"target":34963},{"buffer":0,"byteLength":280,"byteOffset":20424,"target":34963},{"buffer":0,"byteLength":576,"byteOffset":20704,"target":34963},{"buffer":0,"byteLength":768,"byteOffset":21280,"target":34962},{"buffer":0,"byteLength":256,"byteOffset":22048,"target":34962},{"buffer":0,"byteLength":256,"byteOffset":22304,"target":34963},{"buffer":0,"byteLength":576,"byteOffset":22560,"target":34963}],"buffers":[{"uri":"data:application/octet-stream;base64,","byteLength":23136}],"materials":[{"pbrMetallicRoughness":{"baseColorFactor":[1.0,1.0,1.0,1.0],"metallicFactor":0.0,"roughnessFactor":1.0}},{"pbrMetallicRoughness":{"baseColorFactor":[1.0,1.0,1.0,1.0],"metallicFactor":0.0,"roughnessFactor":1.0}},{"pbrMetallicRoughness":{"baseColorFactor":[1.0,1.0,1.0,1.0],"metallicFactor":0.0,"roughnessFactor":1.0}},{"pbrMetallicRoughness":{"baseColorFactor":[1.0,1.0,1.0,1.0],"metallicFactor":0.0,"roughnessFactor":1.0}},{"pbrMetallicRoughness":{"baseColorFactor":[1.0,1.0,1.0,1.0],"metallicFactor":0.0,"roughnessFactor":1.0}},{"pbrMetallicRoughness":{"baseColorFactor":[1.0,1.0,1.0,1.0],"metallicFactor":0.0,"roughnessFactor":1.0}},{"pbrMetallicRoughness":{"baseColorFactor":[1.0,1.0,1.0,1.0],"metallicFactor":0.0,"roughnessFactor":1.0}},{"pbrMetallicRoughness":{"baseColorFactor":[1.0,1.0,1.0,1.0],"metallicFactor":0.0,"roughnessFactor":1.0}},{"pbrMetallicRoughness":{"baseColorFactor":[1.0,1.0,1.0,1.0],"metallicFactor":0.0,"roughnessFactor":1.0}},{"pbrMetallicRoughness":{"baseColorFactor":[1.0,1.0,1.0,1.0],"metallicFactor":0.0,"roughnessFactor":1.0}},{"pbrMetallicRoughness":{"baseColorFactor":[1.0,1.0,1.0,1.0],"metallicFactor":0.0,"roughnessFactor":1.0}},{"pbrMetallicRoughness":{"baseColorFactor":[1.0,1.0,1.0,1.0],"metallicFactor":0.0,"roughnessFactor":1.0}}]}