{"asset":{"version":"2.0","generator":"ddgeoviztools"},"scene":0,"scenes":[{"nodes":[0]}],"nodes":[{"name":"YokeEndcap","mesh":0}],"meshes":[{"name":"YokeEndcap","primitives":[{"attributes":{"COLOR_0":1,"POSITION":0},"indices":2,"mode":0,"material":0},{"attributes":{"COLOR_0":1,"POSITION":0},"indices":3,"mode":1},{"attributes":{"COLOR_0":1,"POSITION":0},"indices":4,"mode":4},{"attributes":{"COLOR_0":6,"POSITION":5},"indices":7,"mode":0,"material":1},{"attributes":{"COLOR_0":6,"POSITION":5},"indices":8,"mode":1},{"attributes":{"COLOR_0":6,"POSITION":5},"indices":9,"mode":4}]}],"accessors":[{"bufferView":0,"byteOffset":0,"componentType":5126,"count":6223,"max":[5895.44384765625,5895.44384765625,5962.2998046875],"min":[-5895.44384765625,-5895.44384765625,4826.2998046875],"type":"VEC3"},{"bufferView":1,"byteOffset":0,"componentType":5121,"count":6223,"normalized":true,"type":"VEC4"},{"bufferView":2,"byteOffset":0,"componentType":5125,"count":86,"type":"SCALAR"},{"bufferView":3,"byteOffset":0,"componentType":5125,"count":212,"type":"SCALAR"},{"bufferView":4,"byteOffset":0,"componentType":5125,"count":36864,"type":"SCALAR"},{"bufferView":5,"byteOffset":0,"componentType":5126,"count":6251,"max":[5895.44384765625,5895.44384765625,-4826.2998046875],"min":[-5895.44384765625,-5895.44384765625,-5962.2998046875],"type":"VEC3"},{"bufferView":6,"byteOffset":0,"componentType":5121,"count":6251,"normalized":true,"type":"VEC4"},{"bufferView":7,"byteOffset":0,"componentType":5125,"count":84,"type":"SCALAR"},{"bufferView":8,"byteOffset":0,"componentType":5125,"count":220,"type":"SCALAR"},{"bufferView":9,"byteOffset":0,"componentType":5125,"count":36864,"type":"SCALAR"}],"bufferViews":[{"buffer":0,"byteLength":74676,"byteOffset":0,"target":34962},{"buffer":0,"byteLength":24892,"byteOffset":74676,"target":34962},{"buffer":0,"byteLength":344,"byteOffset":99568,"target":34963},{"buffer":0,"byteLength":848,"byteOffset":99912,"target":34963},{"buffer":0,"byteLength":147456,"byteOffset":100760,"target":34963},{"buffer":0,"byteLength":75012,"byteOffset":248216,"target":34962},{"buffer":0,"byteLength":25004,"byteOffset":323228,"target":34962},{"buffer":0,"byteLength":336,"byteOffset":348232,"target":34963},{"buffer":0,"byteLength":880,"byteOffset":348568,"target":34963},{"buffer":0,"byteLength":147456,"byteOffset":349448,"target":34963}],"buffers":[{"uri":"data:application/octet-stream;base64,","byteLength":496904}],"materials":[{"pbrMetallicRoughness":{"baseColorFactor":[1.0,1.0,1.0,1.0],"metallicFactor":0.0,"roughnessFactor":1.0}},{"pbrMetallicRoughness":{"baseColorFactor":[1.0,1.0,1.0,1.0],"metallicFactor":0.0,"roughnessFactor":1.0}}]}