{"accessors":[{"bufferView":0,"byteOffset":0,"componentType":5126,"count":2596,"max":[430.0,430.0,5950.0],"min":[-430.0,-430.0,60.0],"type":"VEC3"},{"bufferView":1,"byteOffset":0,"componentType":5121,"count":2596,"normalized":true,"type":"VEC4"},{"bufferView":2,"byteOffset":0,"componentType":5125,"count":33,"type":"SCALAR"},{"bufferView":3,"byteOffset":0,"componentType":5125,"count":94,"type":"SCALAR"},{"bufferView":4,"byteOffset":0,"componentType":5125,"count":15360,"type":"SCALAR"}],"asset":{"generator":"VTK","version":"2.0"},"bufferViews":[{"buffer":0,"byteLength":31152,"byteOffset":0,"target":34962},{"buffer":1,"byteLength":10384,"byteOffset":0,"target":34962},{"buffer":2,"byteLength":132,"byteOffset":0,"target":34963},{"buffer":3,"byteLength":376,"byteOffset":0,"target":34963},{"buffer":4,"byteLength":61440,"byteOffset":0,"target":34963}],"buffers":[{"byteLength":31152,"uri":"data:application/octet-stream;base64,"},{"byteLength":10384,"uri":"data:application/octet-stream;base64,"},{"byteLength":132,"uri":"data:application/octet-stream;base64,"},{"byteLength":376,"uri":"data:application/octet-stream;base64,"},{"byteLength":61440,"uri":"data:application/octet-stream;base64,"}],"cameras":[{"perspective":{"aspectRatio":1.0,"yfov":0.5235987755982988,"zfar":1000.01,"znear":0.01},"type":"perspective"}],"materials":[{"pbrMetallicRoughness":{"baseColorFactor":[1.0,1.0,1.0,1.0],"metallicFactor":0.0,"roughnessFactor":1.0}}],"meshes":[{"name":"NozzleW_right","primitives":[{"attributes":{"COLOR_0":1,"POSITION":0},"indices":2,"material":0,"mode":0},{"attributes":{"COLOR_0":1,"POSITION":0},"indices":3,"mode":1},{"attributes":{"COLOR_0":1,"POSITION":0},"indices":4,"mode":4}]}],"nodes":[{"name":"NozzleW_right","mesh":0}],"scene":0,"scenes":[{"nodes":[0]}]}